<?xml version="1.0" encoding="UTF-8"?>
<svg width="640" height="420" xmlns="http://www.w3.org/2000/svg" font-family="'Helvetica Neue',Arial,sans-serif">
  <rect width="640" height="420" fill="white"/>
  <rect x="1" y="1" width="638" height="418" fill="none" stroke="#d4d4d4" rx="4"/>
  <text x="320" y="27" text-anchor="middle" font-size="15" font-weight="700" fill="#111">O(1) Scalability: ClearBatch CU vs Number of Orders</text>
  <text x="320" y="46" text-anchor="middle" font-size="11" fill="#888">PFDA AMM — clearing is constant-time regardless of batch size</text>

  <line x1="86" y1="352.0" x2="608" y2="352.0" stroke="#ebebeb"/>
  <line x1="86" y1="293.6" x2="608" y2="293.6" stroke="#ebebeb"/>
  <line x1="86" y1="235.2" x2="608" y2="235.2" stroke="#ebebeb"/>
  <line x1="86" y1="176.8" x2="608" y2="176.8" stroke="#ebebeb"/>
  <line x1="86" y1="118.4" x2="608" y2="118.4" stroke="#ebebeb"/>
  <line x1="86" y1="60.0" x2="608" y2="60.0" stroke="#ebebeb"/>
  <text x="79" y="356.0" text-anchor="end" font-size="11" fill="#777">0</text>
  <text x="79" y="297.6" text-anchor="end" font-size="11" fill="#777">6,442</text>
  <text x="79" y="239.2" text-anchor="end" font-size="11" fill="#777">12,884</text>
  <text x="79" y="180.8" text-anchor="end" font-size="11" fill="#777">19,326</text>
  <text x="79" y="122.4" text-anchor="end" font-size="11" fill="#777">25,768</text>
  <text x="79" y="64.0" text-anchor="end" font-size="11" fill="#777">32,210</text>

  <line x1="86" y1="60" x2="86" y2="352" stroke="#bbb" stroke-width="1.5"/>
  <line x1="86" y1="352" x2="608" y2="352" stroke="#bbb" stroke-width="1.5"/>

  <line x1="86" y1="153.4" x2="608" y2="153.4" stroke="#F59E0B" stroke-width="1.8" stroke-dasharray="6,4"/>
  <text x="604" y="147.4" text-anchor="end" font-size="10" fill="#B45309">N=1 baseline  (21,902 CU)</text>
  <rect x="115.4" y="153.4" width="71.8" height="198.6" fill="#3B82F6" rx="3" opacity="0.85"/>
  <rect x="245.9" y="112.8" width="71.8" height="239.2" fill="#3B82F6" rx="3" opacity="0.85"/>
  <rect x="376.4" y="112.7" width="71.8" height="239.3" fill="#3B82F6" rx="3" opacity="0.85"/>
  <rect x="506.9" y="126.2" width="71.8" height="225.8" fill="#3B82F6" rx="3" opacity="0.85"/>
  <text x="151.3" y="146.4" text-anchor="middle" font-size="10.5" fill="#1D4ED8" font-weight="600">21,902</text>
  <text x="281.8" y="105.8" text-anchor="middle" font-size="10.5" fill="#1D4ED8" font-weight="600">26,391</text>
  <text x="412.3" y="105.7" text-anchor="middle" font-size="10.5" fill="#1D4ED8" font-weight="600">26,402</text>
  <text x="542.8" y="119.2" text-anchor="middle" font-size="10.5" fill="#1D4ED8" font-weight="600">24,911</text>
  <text x="151.3" y="370.0" text-anchor="middle" font-size="11" fill="#555">N=1</text>
  <text x="281.8" y="370.0" text-anchor="middle" font-size="11" fill="#555">N=3</text>
  <text x="412.3" y="370.0" text-anchor="middle" font-size="11" fill="#555">N=5</text>
  <text x="542.8" y="370.0" text-anchor="middle" font-size="11" fill="#555">N=10</text>

  <text x="320" y="408" text-anchor="middle" font-size="12" fill="#444">Number of Orders in Batch  (N)</text>
  <text x="14" y="210" text-anchor="middle" font-size="12" fill="#444" transform="rotate(-90,14,210)">Compute Units (CU)</text>
</svg>