<?xml version="1.0" encoding="UTF-8"?>
<svg width="640" height="420" xmlns="http://www.w3.org/2000/svg" font-family="'Helvetica Neue',Arial,sans-serif">
  <rect width="640" height="420" fill="white"/>
  <rect x="1" y="1" width="638" height="418" fill="none" stroke="#d4d4d4" rx="4"/>
  <text x="320" y="27" text-anchor="middle" font-size="15" font-weight="700" fill="#111">TFMM Weight Transition: Clearing Price per Batch</text>
  <text x="320" y="46" text-anchor="middle" font-size="11" fill="#888">weight_a 50% → 70%  |  G3M Batch Auction  |  PFDA AMM</text>

  <line x1="72" y1="352.0" x2="608" y2="352.0" stroke="#ebebeb"/>
  <line x1="72" y1="293.6" x2="608" y2="293.6" stroke="#ebebeb"/>
  <line x1="72" y1="235.2" x2="608" y2="235.2" stroke="#ebebeb"/>
  <line x1="72" y1="176.8" x2="608" y2="176.8" stroke="#ebebeb"/>
  <line x1="72" y1="118.4" x2="608" y2="118.4" stroke="#ebebeb"/>
  <line x1="72" y1="60.0" x2="608" y2="60.0" stroke="#ebebeb"/>
  <text x="65" y="356.0" text-anchor="end" font-size="11" fill="#777">0.949</text>
  <text x="65" y="297.6" text-anchor="end" font-size="11" fill="#777">1.148</text>
  <text x="65" y="239.2" text-anchor="end" font-size="11" fill="#777">1.347</text>
  <text x="65" y="180.8" text-anchor="end" font-size="11" fill="#777">1.547</text>
  <text x="65" y="122.4" text-anchor="end" font-size="11" fill="#777">1.746</text>
  <text x="65" y="64.0" text-anchor="end" font-size="11" fill="#777">1.945</text>

  <line x1="72" y1="60" x2="72" y2="352" stroke="#bbb" stroke-width="1.5"/>
  <line x1="72" y1="352" x2="608" y2="352" stroke="#bbb" stroke-width="1.5"/>

  <defs>
    <linearGradient id="areaFill" x1="0" y1="0" x2="0" y2="1">
      <stop offset="0%"   stop-color="#3B82F6" stop-opacity="0.22"/>
      <stop offset="100%" stop-color="#3B82F6" stop-opacity="0.02"/>
    </linearGradient>
  </defs>
  <polygon points="72.0,314.1 250.7,265.7 429.3,193.8 608.0,121.1 608.0,352.0 72.0,352.0" fill="url(#areaFill)"/>
  <polyline points="72.0,314.1 250.7,265.7 429.3,193.8 608.0,121.1" fill="none" stroke="#3B82F6" stroke-width="2.5" stroke-linejoin="round" stroke-linecap="round"/>

  <circle cx="72.0" cy="314.1" r="5" fill="#3B82F6" stroke="white" stroke-width="2.5"/>
  <circle cx="250.7" cy="265.7" r="5" fill="#3B82F6" stroke="white" stroke-width="2.5"/>
  <circle cx="429.3" cy="193.8" r="5" fill="#3B82F6" stroke="white" stroke-width="2.5"/>
  <circle cx="608.0" cy="121.1" r="5" fill="#3B82F6" stroke="white" stroke-width="2.5"/>
  <text x="72.0" y="303.1" text-anchor="middle" font-size="10.5" fill="#1D4ED8" font-weight="600">1.078</text>
  <text x="250.7" y="254.7" text-anchor="middle" font-size="10.5" fill="#1D4ED8" font-weight="600">1.243</text>
  <text x="429.3" y="182.8" text-anchor="middle" font-size="10.5" fill="#1D4ED8" font-weight="600">1.488</text>
  <text x="608.0" y="110.1" text-anchor="middle" font-size="10.5" fill="#1D4ED8" font-weight="600">1.737</text>
  <text x="72.0" y="370.0" text-anchor="middle" font-size="11" fill="#555">Batch 0 (50.00%)</text>
  <text x="250.7" y="370.0" text-anchor="middle" font-size="11" fill="#555">Batch 1 (52.15%)</text>
  <text x="429.3" y="370.0" text-anchor="middle" font-size="11" fill="#555">Batch 2 (56.27%)</text>
  <text x="608.0" y="370.0" text-anchor="middle" font-size="11" fill="#555">Batch 3 (61.13%)</text>

  <text x="320" y="408" text-anchor="middle" font-size="12" fill="#444">Batch  (start weight_a)</text>
  <text x="14" y="210" text-anchor="middle" font-size="12" fill="#444" transform="rotate(-90,14,210)">Clearing Price  (B per A)</text>
</svg>